<svg xmlns="http://www.w3.org/2000/svg" width="1200" height="630" viewBox="0 0 1200 630">
  <defs>
    <linearGradient id="bg" x1="0%" y1="0%" x2="100%" y2="100%">
      <stop offset="0%" style="stop-color:#0a0a0f"/>
      <stop offset="100%" style="stop-color:#1a0a2e"/>
    </linearGradient>
    <linearGradient id="accent" x1="0%" y1="0%" x2="100%" y2="0%">
      <stop offset="0%" style="stop-color:#ff6b35"/>
      <stop offset="100%" style="stop-color:#7c3aed"/>
    </linearGradient>
    <radialGradient id="glow1" cx="80%" cy="20%" r="40%">
      <stop offset="0%" style="stop-color:#7c3aed;stop-opacity:0.4"/>
      <stop offset="100%" style="stop-color:#7c3aed;stop-opacity:0"/>
    </radialGradient>
    <radialGradient id="glow2" cx="20%" cy="80%" r="35%">
      <stop offset="0%" style="stop-color:#ff6b35;stop-opacity:0.3"/>
      <stop offset="100%" style="stop-color:#ff6b35;stop-opacity:0"/>
    </radialGradient>
  </defs>

  <!-- Background -->
  <rect width="1200" height="630" fill="url(#bg)"/>
  <rect width="1200" height="630" fill="url(#glow1)"/>
  <rect width="1200" height="630" fill="url(#glow2)"/>

  <!-- Grid lines -->
  <g stroke="rgba(255,255,255,0.03)" stroke-width="1">
    <line x1="0" y1="63" x2="1200" y2="63"/>
    <line x1="0" y1="126" x2="1200" y2="126"/>
    <line x1="0" y1="189" x2="1200" y2="189"/>
    <line x1="0" y1="252" x2="1200" y2="252"/>
    <line x1="0" y1="315" x2="1200" y2="315"/>
    <line x1="0" y1="378" x2="1200" y2="378"/>
    <line x1="0" y1="441" x2="1200" y2="441"/>
    <line x1="0" y1="504" x2="1200" y2="504"/>
    <line x1="0" y1="567" x2="1200" y2="567"/>
    <line x1="120" y1="0" x2="120" y2="630"/>
    <line x1="240" y1="0" x2="240" y2="630"/>
    <line x1="360" y1="0" x2="360" y2="630"/>
    <line x1="480" y1="0" x2="480" y2="630"/>
    <line x1="600" y1="0" x2="600" y2="630"/>
    <line x1="720" y1="0" x2="720" y2="630"/>
    <line x1="840" y1="0" x2="840" y2="630"/>
    <line x1="960" y1="0" x2="960" y2="630"/>
    <line x1="1080" y1="0" x2="1080" y2="630"/>
  </g>

  <!-- Top accent bar -->
  <rect x="80" y="80" width="120" height="4" rx="2" fill="url(#accent)"/>

  <!-- Tag label -->
  <rect x="80" y="108" width="220" height="32" rx="16" fill="rgba(255,107,53,0.12)" stroke="rgba(255,107,53,0.3)" stroke-width="1"/>
  <text x="190" y="129" font-family="monospace" font-size="13" fill="#ff6b35" text-anchor="middle" letter-spacing="2">FRONTEND DEVELOPER</text>

  <!-- Name -->
  <text x="80" y="220" font-family="'Arial Black', sans-serif" font-size="72" font-weight="900" fill="white" letter-spacing="-3">Ezenwa Joseph</text>
  <text x="80" y="305" font-family="'Arial Black', sans-serif" font-size="72" font-weight="900" fill="url(#accent)" letter-spacing="-3">Chibuzo.</text>

  <!-- Divider line -->
  <rect x="80" y="335" width="600" height="1" fill="rgba(255,255,255,0.08)"/>

  <!-- Subtitle -->
  <text x="80" y="375" font-family="Arial, sans-serif" font-size="22" fill="rgba(255,255,255,0.5)" letter-spacing="1">HTML · CSS · JavaScript · React</text>

  <!-- Tech badges -->
  <rect x="80" y="415" width="100" height="38" rx="8" fill="rgba(255,107,53,0.15)" stroke="rgba(255,107,53,0.3)" stroke-width="1"/>
  <text x="130" y="439" font-family="monospace" font-size="14" fill="#ff6b35" text-anchor="middle">React</text>

  <rect x="194" y="415" width="100" height="38" rx="8" fill="rgba(124,58,237,0.15)" stroke="rgba(124,58,237,0.3)" stroke-width="1"/>
  <text x="244" y="439" font-family="monospace" font-size="14" fill="#a78bfa" text-anchor="middle">CSS3</text>

  <rect x="308" y="415" width="140" height="38" rx="8" fill="rgba(0,212,255,0.12)" stroke="rgba(0,212,255,0.3)" stroke-width="1"/>
  <text x="378" y="439" font-family="monospace" font-size="14" fill="#00d4ff" text-anchor="middle">JavaScript</text>

  <rect x="462" y="415" width="100" height="38" rx="8" fill="rgba(0,232,122,0.12)" stroke="rgba(0,232,122,0.3)" stroke-width="1"/>
  <text x="512" y="439" font-family="monospace" font-size="14" fill="#00e87a" text-anchor="middle">HTML5</text>

  <!-- Right side code block -->
  <rect x="800" y="160" width="320" height="280" rx="16" fill="rgba(255,255,255,0.03)" stroke="rgba(255,255,255,0.07)" stroke-width="1"/>
  <rect x="800" y="160" width="320" height="40" rx="16" fill="rgba(255,255,255,0.04)"/>
  <circle cx="826" cy="180" r="6" fill="#ff5f57"/>
  <circle cx="846" cy="180" r="6" fill="#ffbd2e"/>
  <circle cx="866" cy="180" r="6" fill="#28c940"/>
  <text x="960" y="184" font-family="monospace" font-size="11" fill="rgba(255,255,255,0.2)" text-anchor="middle">portfolio.jsx</text>

  <text x="824" y="228" font-family="monospace" font-size="13" fill="#c792ea">const</text>
  <text x="876" y="228" font-family="monospace" font-size="13" fill="#82aaff">Developer</text>
  <text x="952" y="228" font-family="monospace" font-size="13" fill="#c792ea">= () =&gt;</text>
  <text x="824" y="255" font-family="monospace" font-size="13" fill="rgba(255,255,255,0.7)">  return (</text>
  <text x="824" y="280" font-family="monospace" font-size="13" fill="#ff6b35">    &lt;div&gt;</text>
  <text x="824" y="305" font-family="monospace" font-size="13" fill="rgba(255,255,255,0.5)">      Ezenwa J. C.</text>
  <text x="824" y="330" font-family="monospace" font-size="13" fill="#ff6b35">    &lt;/div&gt;</text>
  <text x="824" y="355" font-family="monospace" font-size="13" fill="rgba(255,255,255,0.7)">  );</text>
  <text x="824" y="380" font-family="monospace" font-size="13" fill="rgba(255,255,255,0.7)">};</text>
  <text x="824" y="415" font-family="monospace" font-size="13" fill="#c792ea">export default</text>
  <text x="948" y="415" font-family="monospace" font-size="13" fill="#82aaff">Developer</text>

  <!-- Bottom bar -->
  <rect x="0" y="590" width="1200" height="40" fill="rgba(0,0,0,0.3)"/>
  <text x="80" y="615" font-family="monospace" font-size="13" fill="rgba(255,255,255,0.2)">github.io/portfolio</text>
  <text x="1120" y="615" font-family="monospace" font-size="13" fill="rgba(255,255,255,0.2)" text-anchor="end">© 2024</text>

  <!-- Available dot -->
  <circle cx="80" cy="530" r="5" fill="#00e87a"/>
  <text x="94" y="535" font-family="Arial, sans-serif" font-size="14" fill="rgba(255,255,255,0.4)">Available for work</text>
</svg>
